<?xml version="1.0" encoding="utf-8"?>
<!-- Generator: Adobe Illustrator 16.0.0, SVG Export Plug-In . SVG Version: 6.00 Build 0)  -->
<!DOCTYPE svg PUBLIC "-//W3C//DTD SVG 1.1//EN" "http://www.w3.org/Graphics/SVG/1.1/DTD/svg11.dtd">
<svg version="1.1" id="Calque_1" xmlns="http://www.w3.org/2000/svg" xmlns:xlink="http://www.w3.org/1999/xlink" x="0px" y="0px"
	 width="80px" height="20px" viewBox="0 0 80 20" style="enable-background:new 0 0 80 20;" xml:space="preserve">
<style type="text/css">
<![CDATA[
	.st0{fill-rule:evenodd;clip-rule:evenodd;}
]]>
</style>
<path class="st0" d="M35,9.9c-0.6,0.4-0.9,0.6-1.3,0.8C30.9,12.4,28,14,25,15.7c0-3.8,0-7.5,0-11.3C28.3,6.2,31.5,8,35,9.9z"/>
<g>
	<path class="st0" d="M65,3.9c1.2,0,2.2,0,3.4,0c0,4.1,0,8.1,0,12.3c-1.1,0-2.1,0-3.4,0C65,12.1,65,8.1,65,3.9z"/>
	<path class="st0" d="M71.6,3.9c1.2,0,2.2,0,3.4,0c0,4.1,0,8.1,0,12.3c-1.1,0-2.1,0-3.4,0C71.6,12.1,71.6,8.1,71.6,3.9z"/>
</g>
<g>
	<path class="st0" d="M45,4.5c2.9,1.8,5.6,3.6,8.6,5.5c-3,1.9-5.7,3.6-8.6,5.5C45,11.8,45,8.3,45,4.5z"/>
	<path class="st0" d="M55,9.8c0,1.6,0,4.7,0,4.7l-1.3,0.1l0-9.3L55,5.5C55,5.5,55,8.4,55,9.8z"/>
</g>
<g>
	<path class="st0" d="M6.3,10c3-1.9,5.7-3.7,8.7-5.5c0,3.8,0,7.2,0,11C12.1,13.7,9.4,11.9,6.3,10z"/>
	<path class="st0" d="M6.3,10c0,1.5,0,4.5,0,4.5L5,14.6l0-9.1l1.2-0.1C6.3,5.5,6.3,8.5,6.3,10C6.3,10,6.3,10,6.3,10z"/>
</g>
</svg>
